<svg width="601" height="177" viewBox="0 0 601 177" fill="none" xmlns="http://www.w3.org/2000/svg">
<path d="M274.52 43.064H243.968V137.912H227.248V43.064H197V28.624H274.52V43.064ZM350.636 137.152H335.588V121.344H334.828C333.41 125.904 330.775 129.957 326.924 133.504C323.175 137.051 317.399 138.824 309.596 138.824C306.151 138.824 302.908 138.216 299.868 137C296.93 135.683 294.346 133.909 292.116 131.68C289.887 129.451 288.114 126.816 286.796 123.776C285.58 120.736 284.972 117.443 284.972 113.896V60.848H300.324V108.424C300.324 110.349 300.426 112.325 300.628 114.352C300.831 116.277 301.388 118 302.3 119.52C303.212 121.141 304.53 122.459 306.252 123.472C307.975 124.485 310.306 124.992 313.244 124.992C319.122 124.992 323.732 122.864 327.076 118.608C330.42 114.251 332.751 109.235 334.068 103.56C334.372 101.736 334.626 99.9627 334.828 98.24C335.031 96.416 335.183 94.6427 335.284 92.92V60.848H350.636V137.152ZM436.716 137.304H421.516V95.808C421.516 93.4773 421.465 91.096 421.364 88.664C421.364 86.232 420.959 83.952 420.148 81.824C419.439 79.7973 418.223 78.1253 416.5 76.808C414.777 75.3893 412.244 74.528 408.9 74.224C404.239 73.92 400.084 75.8453 396.436 80C392.788 84.1547 390.103 89.424 388.38 95.808C387.975 97.632 387.671 99.456 387.468 101.28C387.265 103.003 387.164 104.624 387.164 106.144V137.304H371.964V60.848H387.164V77.872H387.924C388.329 76.8587 388.937 75.3387 389.748 73.312C390.559 71.184 391.876 69.056 393.7 66.928C395.423 64.9013 397.652 63.128 400.388 61.608C403.225 59.9867 406.873 59.176 411.332 59.176C418.628 59.176 424.657 61.3547 429.42 65.712C434.284 70.0693 436.716 76.1493 436.716 83.952V137.304ZM523.859 93.68H523.555V103.56H470.051C470.558 106.701 471.47 109.64 472.787 112.376C474.206 115.112 476.182 117.544 478.715 119.672C481.249 121.699 484.441 123.32 488.291 124.536C492.142 125.752 496.803 126.36 502.275 126.36C502.782 126.36 503.694 126.309 505.011 126.208C506.43 126.005 508.051 125.701 509.875 125.296C511.699 124.992 513.625 124.485 515.651 123.776C517.678 123.067 519.603 122.155 521.427 121.04V133.352C517.475 135.683 513.017 137.253 508.051 138.064C503.187 138.976 498.273 139.28 493.307 138.976C488.443 138.672 483.782 137.811 479.323 136.392C474.865 134.872 471.115 132.947 468.075 130.616C463.718 127.373 460.121 122.864 457.283 117.088C454.446 111.211 453.027 104.624 453.027 97.328C453.027 86.08 456.219 76.9093 462.603 69.816C468.987 62.7227 478.411 59.176 490.875 59.176C500.502 59.176 508.305 62.3173 514.283 68.6C520.363 74.7813 523.555 83.1413 523.859 93.68ZM507.595 90.64C507.595 88.512 507.241 86.3333 506.531 84.104C505.822 81.8747 504.809 79.8987 503.491 78.176C502.073 76.4533 500.249 75.0347 498.019 73.92C495.891 72.8053 493.358 72.248 490.419 72.248C484.643 72.248 479.881 73.8693 476.131 77.112C472.483 80.2533 470.305 84.7627 469.595 90.64H507.595ZM588.501 115.872C588.501 119.317 587.994 122.509 586.981 125.448C585.968 128.285 584.194 130.717 581.661 132.744C579.128 134.872 575.784 136.493 571.629 137.608C567.474 138.723 562.205 139.28 555.821 139.28C550.957 139.28 546.346 138.723 541.989 137.608C537.632 136.493 534.288 135.429 531.957 134.416V119.064C533.072 119.672 534.389 120.381 535.909 121.192C537.53 122.003 539.354 122.763 541.381 123.472C543.306 124.181 545.434 124.789 547.765 125.296C550.096 125.701 552.629 125.904 555.365 125.904C557.29 125.904 559.266 125.803 561.293 125.6C563.32 125.397 565.144 124.941 566.765 124.232C568.386 123.624 569.704 122.763 570.717 121.648C571.832 120.432 572.389 118.912 572.389 117.088C572.389 114.859 571.68 113.035 570.261 111.616C568.944 110.197 567.12 108.931 564.789 107.816C562.357 106.701 559.57 105.637 556.429 104.624C553.389 103.509 550.146 102.091 546.701 100.368C543.154 98.848 539.861 96.6187 536.821 93.68C533.781 90.7413 532.261 86.688 532.261 81.52C532.261 74.528 534.794 69.056 539.861 65.104C544.928 61.152 552.274 59.176 561.901 59.176C565.853 59.176 569.856 59.632 573.909 60.544C577.962 61.456 581.205 62.2667 583.637 62.976V78.632C580.901 77.416 577.557 76.0987 573.605 74.68C569.653 73.16 565.245 72.4 560.381 72.4C557.848 72.4 555.162 72.9067 552.325 73.92C549.589 74.832 548.221 76.5547 548.221 79.088C548.221 80.8107 548.626 82.3307 549.437 83.648C550.248 84.9653 551.565 86.1813 553.389 87.296C555.618 88.6133 558.709 89.9307 562.661 91.248C566.613 92.5653 570.514 94.288 574.365 96.416C578.114 98.4427 581.408 101.027 584.245 104.168C587.082 107.208 588.501 111.109 588.501 115.872Z" fill="white"/>
<ellipse cx="91" cy="88.3103" rx="91" ry="87.8621" fill="url(#paint0_linear_3_2)"/>
<path d="M131.793 85.1723C131.793 105.969 112.339 119.779 91 122.828C69.0345 125.965 50.2069 110.276 53.3448 85.1723C54.1232 78.9449 62.7586 56.931 91 53.793C113.529 53.793 131.793 64.376 131.793 85.1723Z" fill="white"/>
<path d="M116.103 3.58617C122.782 4.95468 126.195 6.2444 131.793 9.86203V82.0344L112.966 75.7586L116.103 3.58617Z" fill="white"/>
<path d="M83.8314 79.3744C89.059 75.0106 92.6407 73.9474 99.521 73.0985C94.6677 69.6321 91.312 68.8328 83.8314 69.9606C77.9691 71.6393 75.1758 73.6058 71.2796 79.3744C67.7612 87.1112 68.0701 94.3737 74.4176 101.34C74.1235 88.8578 77.1971 85.0441 83.8314 79.3744Z" fill="url(#paint1_linear_3_2)" stroke="black" stroke-width="0.005"/>
<defs>
<linearGradient id="paint0_linear_3_2" x1="50.2069" y1="0.448274" x2="131.793" y2="176.172" gradientUnits="userSpaceOnUse">
<stop offset="0.156351" stop-color="#FFA000"/>
<stop offset="0.76836" stop-color="#F43C44"/>
<stop offset="1" stop-color="#ED1C5D"/>
</linearGradient>
<linearGradient id="paint1_linear_3_2" x1="84.2777" y1="69.4827" x2="84.2777" y2="101.34" gradientUnits="userSpaceOnUse">
<stop stop-color="#FA6C24"/>
<stop offset="1" stop-color="#F8662A"/>
</linearGradient>
</defs>
</svg>
